<?xml version="1.0" encoding="iso-8859-1"?>
<!-- Uploaded to: SVG Repo, www.svgrepo.com, Generator: SVG Repo Mixer Tools -->
<!DOCTYPE svg PUBLIC "-//W3C//DTD SVG 1.1//EN" "http://www.w3.org/Graphics/SVG/1.1/DTD/svg11.dtd">
<svg fill="#000000" height="800px" width="800px" version="1.1" id="Capa_1" xmlns="http://www.w3.org/2000/svg" xmlns:xlink="http://www.w3.org/1999/xlink" 
	 viewBox="0 0 486.203 486.203" xml:space="preserve">
<g>
	<path d="M412.487,22.161C407.6,5.728,390.271-3.562,373.88,1.293c-4.954,1.482-9.219,4.13-12.669,7.503
		C355.58,3.355,347.918,0,339.468,0c-9.472,0-17.955,4.214-23.695,10.862C310.033,4.214,301.55,0,292.077,0
		c-9.472,0-17.955,4.214-23.695,10.862C262.643,4.214,254.16,0,244.687,0c-9.473,0-17.956,4.214-23.695,10.862
		C215.253,4.214,206.77,0,197.297,0c-9.473,0-17.956,4.214-23.695,10.862C167.863,4.214,159.379,0,149.907,0
		c-9.276,0-17.606,4.039-23.337,10.449c-3.697-4.162-8.503-7.439-14.246-9.156C95.932-3.57,78.62,5.72,73.717,22.161L31.459,163.586
		h423.285L412.487,22.161z"/>
	<path d="M48.011,216.593c2.967,0.881,5.959,1.302,8.901,1.302c13.362,0,25.708-8.688,29.729-22.168l1.626-5.45
		c1.104,9.893,6.886,18.708,15.52,23.587c2.768,1.563,5.807,2.769,9.116,3.427c2.047,0.406,4.086,0.604,6.093,0.604
		c14.504,0,27.467-10.219,30.404-24.978l0.762-3.793c0.762,10.521,6.864,19.725,15.797,24.747c3.601,2.023,7.616,3.436,11.995,3.864
		c1.048,0.102,2.088,0.151,3.11,0.151c15.758,0,29.261-11.941,30.857-27.952l0.221-2.301c0.286,11.298,6.657,20.992,15.885,26.182
		c4.475,2.523,9.576,4.07,15.082,4.07c5.491,0,10.593-1.547,15.066-4.062c9.228-5.198,15.599-14.893,15.885-26.19l0.223,2.301
		c1.594,16.01,15.099,27.952,30.855,27.952c1.024,0,2.062-0.048,3.11-0.151c4.379-0.429,8.394-1.841,11.997-3.872
		c8.934-5.015,15.035-14.218,15.796-24.739l0.762,3.793c2.936,14.766,15.9,24.978,30.412,24.978c1.999,0,4.038-0.198,6.085-0.604
		c3.309-0.658,6.355-1.864,9.124-3.427c8.633-4.888,14.41-13.695,15.511-23.587l1.626,5.45c4.023,13.48,16.376,22.168,29.729,22.168
		c2.944,0,5.934-0.421,8.903-1.302c16.043-4.8,25.222-21.423,21.072-37.496H26.945C22.787,195.17,31.968,211.794,48.011,216.593z"/>
	<path d="M475.856,375.482l-13.575-12.933l-13.576,12.933v29h-19.398V241.173h-0.008c-11.314,0-22.025-3.69-30.943-9.919
		c-5.983,4.222-12.886,7.348-20.518,8.871c-3.499,0.699-7.077,1.048-10.624,1.048c-2.348,0-4.626-0.311-6.902-0.611v122.011
		c5.728,8.505,9.6,17.661,10.901,27.134c1.555,11.196-0.785,20.931-6.958,28.943c-13.647,17.733-41.582,21.137-76.968,25.43
		c-6.729,0.817-13.727,1.674-20.908,2.659c-7.195,0.991-14.193,2.07-20.922,3.11c-18.176,2.8-33.878,5.219-47.581,5.219
		c-30.8,0-42.463-14.202-46.477-28.34h-8.069c-9.124,0-16.376-7.077-17.146-15.996c3.785-0.262,7.418-1.428,10.426-3.697
		c3.839,1.943,8.339,3.055,13.043,3.705c2.072,0.294,4.095,0.707,6.285,0.707c1.451,0,4.355-0.008,9.68-1.222
		c-0.151,2.665-0.151,5.301,0.182,7.808c2.238,16.146,14.083,21.072,32.077,21.072c17.408,0,40.584-4.625,66.329-8.164
		c52.327-7.213,95.598-7.268,91.203-39.051c-2.221-16.171-16.002-33.142-35.663-45.178c0.239,17.868-6.173,36.434-6.173,36.434
		c1.183-24.293-10.965-40.226-18.201-47.549c-9.798-3.03-20.264-4.902-31.125-4.902c-1.761,0-3.563,0.262-5.332,0.356
		c8.838,26.492,4.577,61.022,4.577,61.022c-3.206-19.367-11.615-33.736-20.525-44.09c0.595-1.88,0.96-3.856,0.96-5.896
		c0-4.522-1.579-8.774-4.301-12.138c4.062-1.104,9.553-3.025,16.512-6.007c0.468-0.198,0.801-0.301,1.285-0.515
		c3.983-1.706,6.989-4.855,8.901-8.617c1.301-2.538,2.174-5.339,2.174-8.331c0-5.364-2.317-10.354-6.182-13.781
		c0.057-0.056,0.112-0.121,0.168-0.176c2.022-2.023,8.243-8.219,17.455-31.632c2.793-7.166,1.107-15.262-4.308-20.677
		c-10.183-10.183-29.413-0.699-32.856,0.919c-13.441,6.308-17.859,10.624-19.478,12.258c-0.041,0.049-0.088,0.08-0.135,0.127
		c-3.443-3.601-8.245-5.736-13.401-5.736c-7.387,0-14.044,4.373-16.964,11.141c-3.292,7.585-5.276,13.289-6.465,17.653
		c-3.429-2.967-7.879-4.689-12.6-4.689c-7.704,0-14.647,4.555-17.702,11.631c-9.988,23.002-9.988,31.793-9.988,34.672
		c0,0.454,0,0.905,0.015,1.357c-3.562-3.752-8.584-5.989-13.987-5.989c-2.158,0.008-4.222,0.452-6.181,1.118v-74.112
		c-2.276,0.3-4.553,0.611-6.902,0.611c-3.523,0-7.101-0.349-10.647-1.048c-7.626-1.522-14.52-4.641-20.503-8.862
		c-8.918,6.22-19.621,9.91-30.935,9.91h-0.008v163.308H37.497v-29l-13.568-12.933l-13.583,12.933c0,0,0,94.638,0,95.202
		c0,8.568,6.95,15.52,15.52,15.52h434.472c8.568,0,15.518-6.951,15.518-15.52C475.856,470.12,475.856,375.482,475.856,375.482z
		 M56.895,455.172H37.497v-28.444h19.398V455.172z M199.963,375.077c-0.983-1.929-2.126-3.809-3.713-5.309
		c0.452,0.016,0.905,0.016,1.349,0.016c1.643,0,5.245-0.071,12.035-1.841c6.285,14.933,8.182,31.015,8.182,31.015
		C213.229,388.136,206.637,380.584,199.963,375.077z M122.026,394.262c-1.585-1.571-1.578-4.095-0.015-5.666l9.044-9.06
		c-6.228-0.912-11.155-9.22-11.155-19.676c0-7.181,5.125-20.248,8.727-28.524c0.587-1.381,1.952-2.254,3.443-2.262
		c1.5,0,2.857,0.881,3.443,2.262c3.61,8.267,8.76,21.335,8.768,28.524c0,2.618-0.358,5.078-0.905,7.354l29.325-29.324
		c-6.22-0.897-11.147-9.227-11.147-19.701c0-7.189,5.133-20.248,8.719-28.523c0.603-1.372,1.959-2.269,3.459-2.269
		c1.492,0,2.849,0.889,3.443,2.262c3.617,8.282,8.758,21.342,8.766,28.53c0,2.619-0.356,5.07-0.903,7.371l22.747-22.755
		c-4.332-1.539-7.648-7.6-7.648-15.201c0.008-5.664,4.062-15.987,6.902-22.524c0.46-1.087,1.531-1.794,2.722-1.794
		c1.182,0,2.244,0.699,2.729,1.786c2.848,6.545,6.919,16.86,6.919,22.533c0,1.453-0.286,2.753-0.5,4.079l8.085-8.078
		c-1.602-5.292,0.991-12.972,7.299-19.263c5.07-5.102,17.924-10.703,26.319-14.012c0.452-0.167,0.919-0.255,1.388-0.255
		c0.968,0,1.935,0.382,2.658,1.104c1.055,1.054,1.379,2.634,0.84,4.029c-3.308,8.402-8.901,21.272-13.987,26.342
		c-5.117,5.118-11.188,7.871-16.114,7.871c-0.914,0-1.778-0.095-2.587-0.286l-8.219,8.212c1.324-0.214,2.618-0.492,4.069-0.492
		c5.682,0,15.987,4.063,22.542,6.911c1.079,0.468,1.776,1.54,1.776,2.713c0,1.191-0.69,2.262-1.776,2.73
		c-6.546,2.864-16.86,6.927-22.542,6.927c-7.592,0-13.638-3.325-15.193-7.649l-22.183,22.183c2.023-0.429,4.085-0.787,6.338-0.787
		c7.189,0,20.256,5.149,28.53,8.744c1.373,0.603,2.262,1.968,2.262,3.459c0,1.5-0.889,2.857-2.262,3.443
		c-8.274,3.603-21.341,8.735-28.53,8.735h-0.024c-10.076,0-18.027-4.594-19.447-10.473l-28.538,28.54
		c2.023-0.412,4.095-0.778,6.347-0.778c7.189,0,20.24,5.141,28.516,8.744c1.373,0.603,2.262,1.959,2.254,3.459
		c0,1.5-0.881,2.848-2.254,3.443c-8.275,3.602-21.319,8.727-28.516,8.735h-0.023c-10.053,0-18.018-4.602-19.447-10.489l-8.815,8.821
		c-0.77,0.787-1.794,1.167-2.816,1.167C123.837,395.436,122.804,395.047,122.026,394.262z M448.705,455.172h-19.398v-28.444h19.398
		V455.172z"/>
</g>
</svg>